<svg width="28" height="33" viewBox="0 0 28 33" fill="none" xmlns="http://www.w3.org/2000/svg">
<path fill-rule="evenodd" clip-rule="evenodd" d="M4.51789 0.00964848L18.7735 0.00241208V5.55751L4.51789 5.56475C3.87401 5.56548 3.24681 5.36008 2.7281 4.97861L0.417296 3.27324C0.341479 3.21717 0.279869 3.14409 0.237415 3.05989C0.194961 2.97569 0.172846 2.8827 0.172846 2.7884C0.172846 2.69411 0.194961 2.60112 0.237415 2.51692C0.279869 2.43272 0.341479 2.35964 0.417296 2.30357L2.73051 0.595792C3.2476 0.214438 3.87298 0.00823066 4.51548 0.00723625L4.51789 0.00964848ZM24.6422 5.55269L21.7886 5.5551V0H24.6518C26.1811 0.0241212 27.351 1.38214 27.351 2.77393C27.351 4.16814 26.1811 5.52857 24.6518 5.55269H24.6422ZM10.3359 11.1247C11.144 11.4479 11.8314 11.8025 12.4272 12.1546V32.3875C11.5076 31.6974 10.5022 31.1298 9.43619 30.699C7.66329 29.9898 5.10645 29.4037 1.20606 29.4037C0.886191 29.4037 0.579426 29.2766 0.353246 29.0504C0.127066 28.8243 0 28.5175 0 28.1976V10.8593C0 10.5395 0.127066 10.2327 0.353246 10.0065C0.579426 9.78035 0.886191 9.65328 1.20606 9.65328C5.3549 9.65328 8.22531 10.278 10.3359 11.1247ZM18.431 30.699C17.1284 31.2224 16.2142 31.823 15.4399 32.3851V12.1522C16.0357 11.8001 16.7256 11.4455 17.5337 11.1223C19.6443 10.2756 22.5147 9.65087 26.6635 9.65087C26.9834 9.65087 27.2901 9.77794 27.5163 10.0041C27.7425 10.2303 27.8696 10.5371 27.8696 10.8569V28.1952C27.8696 28.5151 27.7425 28.8218 27.5163 29.048C27.2901 29.2742 26.9834 29.4013 26.6635 29.4013C22.7631 29.4013 20.2063 29.9874 18.431 30.699Z" fill="white"/>
</svg>
