<svg width="12" height="12" viewBox="0 0 12 12" fill="none" xmlns="http://www.w3.org/2000/svg">
<path d="M11.5573 9.42313L11.8443 0.343671L2.76645 0.00954208C2.6723 -0.00650016 2.5758 -0.00212674 2.48349 0.0223666C2.39118 0.0468595 2.30521 0.0909007 2.2314 0.151508C2.15759 0.212115 2.09766 0.287872 2.05568 0.373653C2.01369 0.459433 1.99063 0.553234 1.98804 0.648704C1.98546 0.744173 2.00342 0.839084 2.0407 0.927009C2.07799 1.01493 2.13373 1.09382 2.20416 1.15833C2.27458 1.22284 2.35804 1.27147 2.4489 1.30092C2.53975 1.33037 2.63586 1.33995 2.73074 1.32903L9.53288 1.59002L0.211864 10.2944C0.0826389 10.4151 0.00664466 10.5821 0.000600009 10.7589C-0.00544567 10.9356 0.0589541 11.1074 0.179631 11.2367C0.300307 11.3659 0.467377 11.4419 0.644085 11.4479C0.820792 11.454 0.992663 11.3896 1.12189 11.2689L10.4429 2.56451L10.2384 9.36858C10.233 9.54541 10.2981 9.71715 10.4193 9.84602C10.5405 9.97489 10.7079 10.0503 10.8847 10.0558C11.0615 10.0612 11.2333 9.99614 11.3622 9.87494C11.491 9.75374 11.5665 9.58631 11.5719 9.40948L11.5573 9.42313Z" fill="white"/>
</svg>
