<svg width="31" height="26" viewBox="0 0 31 26" fill="none" xmlns="http://www.w3.org/2000/svg">
<path d="M5.62827 25.3272C5.2296 25.3272 4.89566 25.1921 4.62644 24.922C4.35722 24.6518 4.22214 24.3179 4.2212 23.9201V22.5131C3.04865 22.5131 2.05197 22.1027 1.23118 21.2819C0.410395 20.4611 0 19.4644 0 18.2919V11.2565C0 10.4826 0.275785 9.82039 0.827356 9.26976C1.37893 8.71913 2.04119 8.44334 2.81413 8.4424C3.58708 8.44146 4.24981 8.71725 4.80232 9.26976C5.35483 9.82227 5.63014 10.4845 5.62827 11.2565V16.8848H25.3272V11.2565C25.3272 10.4826 25.603 9.82039 26.1546 9.26976C26.7061 8.71913 27.3684 8.44334 28.1413 8.4424C28.9143 8.44146 29.577 8.71725 30.1295 9.26976C30.682 9.82227 30.9574 10.4845 30.9555 11.2565V18.2919C30.9555 19.4644 30.5451 20.4611 29.7243 21.2819C28.9035 22.1027 27.9068 22.5131 26.7343 22.5131V23.9201C26.7343 24.3188 26.5992 24.6532 26.329 24.9234C26.0589 25.1935 25.7249 25.3281 25.3272 25.3272C24.9295 25.3263 24.5955 25.1912 24.3254 24.922C24.0552 24.6528 23.9201 24.3188 23.9201 23.9201V22.5131H7.03534V23.9201C7.03534 24.3188 6.90026 24.6532 6.6301 24.9234C6.35994 25.1935 6.026 25.3281 5.62827 25.3272ZM8.4424 14.0707V11.2565C8.4424 9.96673 8.04983 8.81152 7.26469 7.79093C6.47954 6.77034 5.46505 6.04945 4.2212 5.62827V4.2212C4.2212 3.04865 4.6316 2.05197 5.45238 1.23118C6.27317 0.410395 7.26985 0 8.4424 0H22.5131C23.6856 0 24.6823 0.410395 25.5031 1.23118C26.3239 2.05197 26.7343 3.04865 26.7343 4.2212V5.62827C25.4679 5.95658 24.4478 6.64276 23.6739 7.68681C22.9 8.73085 22.5131 9.92076 22.5131 11.2565V14.0707H8.4424Z" fill="white"/>
</svg>
