<svg width="170" height="218" viewBox="0 0 170 218" fill="none" xmlns="http://www.w3.org/2000/svg">
<path d="M-0.000679461 36.9008L45.8967 128.457C45.2455 129.032 44.4987 129.766 43.9359 130.296C40.923 133.179 39.0253 135.567 37.8492 137.668C37.2896 138.617 36.8268 139.621 36.4677 140.663C36.1961 141.554 36.0137 143.193 36.0137 143.193L35.9017 145.266L44.3188 162.057L51.6798 158.367L81.2005 217.255L95.9225 209.874L66.4018 150.987L125.29 121.466L154.81 180.354L169.532 172.974L140.012 114.086L147.373 110.396L138.956 93.6051L137.227 92.4543C137.227 92.4543 135.798 91.6236 134.921 91.3078C133.874 90.9712 132.795 90.7404 131.702 90.6189C129.315 90.3047 126.266 90.3962 122.146 91.0891C121.384 91.2225 120.357 91.3782 119.507 91.5559L73.6092 -0.000101475L58.8872 7.38009L62.5773 14.7411L18.4114 36.8816L14.7213 29.5206L-0.000679461 36.9008ZM25.7916 51.6036L40.5136 44.2234L73.8388 110.701C68.3329 113.645 63.4013 116.301 59.4637 118.773L25.7916 51.6036ZM55.2355 36.8432L69.9575 29.4631L103.63 96.6321C99.2824 98.3047 94.2142 100.67 88.5608 103.32L55.2355 36.8432Z" fill="white" fill-opacity="0.25"/>
</svg>
