<svg width="27" height="23" viewBox="0 0 27 23" fill="none" xmlns="http://www.w3.org/2000/svg">
<path d="M11.1268 0.296701L4.3166e-06 10.5638L10.2092 21.7437C10.3001 21.8744 10.4181 21.984 10.555 22.0651C10.692 22.1462 10.8448 22.1969 11.0031 22.2138C11.1613 22.2307 11.3214 22.2134 11.4724 22.1631C11.6234 22.1128 11.7619 22.0306 11.8783 21.9221C11.9948 21.8137 12.0867 21.6814 12.1476 21.5344C12.2085 21.3873 12.2372 21.2289 12.2316 21.0698C12.226 20.9108 12.1862 20.7548 12.1151 20.6124C12.044 20.47 11.943 20.3445 11.8192 20.2445L4.18197 11.8548L25.4181 12.7635C25.7125 12.7761 25.9999 12.6712 26.217 12.4719C26.4341 12.2726 26.5631 11.9953 26.5757 11.7009C26.5883 11.4064 26.4834 11.1191 26.2841 10.902C26.0849 10.6849 25.8075 10.5559 25.5131 10.5433L4.27697 9.63465L12.6029 1.92796C12.8194 1.7278 12.9475 1.44984 12.9591 1.15521C12.9707 0.860591 12.8647 0.57344 12.6646 0.356933C12.4644 0.140426 12.1864 0.012298 11.8918 0.000734937C11.5972 -0.0108282 11.31 0.0951222 11.0935 0.295276L11.1268 0.296701Z" fill="black"/>
</svg>
