<svg width="28" height="28" viewBox="0 0 28 28" fill="none" xmlns="http://www.w3.org/2000/svg">
<path d="M13.8606 2.31006C20.2396 2.31006 25.4106 7.481 25.4106 13.8601C25.4106 20.2391 20.2396 25.4101 13.8606 25.4101C7.48149 25.4101 2.31055 20.2391 2.31055 13.8601C2.31055 7.481 7.48149 2.31006 13.8606 2.31006ZM13.8606 6.93006C13.5542 6.93006 13.2605 7.05175 13.0439 7.26836C12.8272 7.48496 12.7056 7.77874 12.7056 8.08507V13.8601C12.7056 14.1664 12.8274 14.4601 13.044 14.6767L16.509 18.1417C16.7268 18.3521 17.0186 18.4685 17.3214 18.4658C17.6242 18.4632 17.9139 18.3417 18.1281 18.1276C18.3422 17.9134 18.4637 17.6238 18.4663 17.3209C18.469 17.0181 18.3525 16.7263 18.1422 16.5085L15.0156 13.3819V8.08507C15.0156 7.77874 14.8939 7.48496 14.6773 7.26836C14.4607 7.05175 14.1669 6.93006 13.8606 6.93006Z" fill="white"/>
</svg>
